{"title":"THE WOMAN IN BLACK DVDSCR","uid":7044314,"size":886820561,"categoryP":"video","categoryS":"movies","magnet":"?xt=urn:btih:b0877feb2b8d3abddd275731405d4b7e1cec4ad8&amp;dn=THE+WOMAN+IN+BLACK+DVDSCR&amp;tr=udp%3A%2F%2Ftracker.openbittorrent.com%3A80&amp;tr=udp%3A%2F%2Fopen.demonii.com%3A1337&amp;tr=udp%3A%2F%2Ftracker.coppersurfer.tk%3A6969&amp;tr=udp%3A%2F%2Fexodus.desync.com%3A6969","seeders":2,"leechers":0,"uploader":"Hackulus","files":-1,"time":1329691379,"description":"[img]http://img855.imageshack.us/img855/8972/c9f5inxv.jpg[/img]\n\nGeneral\nComplete name : THE WOMAN IN BLACK DVDSCR.avi\nFormat : AVI\nFormat/Info : Audio Video Interleave\nFile size : 846 MiB\nDuration : 1h 28mn\nOverall bit rate : 1 339 Kbps\nWriting application : Lavf52.31.0\n\nIMDb : http://www.imdb.com/title/tt1596365/\n\nVideo\nID : 0\nFormat : MPEG-4 Visual\nFormat profile : Simple@L1\nFormat settings, BVOP : No\nFormat settings, QPel : No\nFormat settings, GMC : No warppoints\nFormat settings, Matrix : Default (H.263)\nCodec ID : FMP4\nDuration : 1h 28mn\nBit rate : 1 198 Kbps\nWidth : 720 pixels\nHeight : 576 pixels\nDisplay aspect ratio : 4:3\nFrame rate : 25.000 fps\nStandard : PAL\nColor space : YUV\nChroma subsampling : 4:2:0\nBit depth : 8 bits\nScan type : Progressive\nCompression mode : Lossy\nBits/(Pixel*Frame) : 0.116\nStream size : 757 MiB (89%)\nWriting library : Lavc52.20.0\n\nAudio\nID : 1\nFormat : MPEG Audio\nFormat version : Version 1\nFormat profile : Layer 3\nMode : Joint stereo\nMode extension : MS Stereo\nCodec ID : 55\nCodec ID/Hint : MP3\nDuration : 1h 28mn\nBit rate mode : Constant\nBit rate : 128 Kbps\nChannel(s) : 2 channels\nSampling rate : 48.0 KHz\nCompression mode : Lossy\nStream size : 80.8 MiB (10%)\nAlignment : Aligned on interleaves\nInterleave, duration : 24 ms (0.60 video frame)\n\n[img]http://img594.imageshack.us/img594/4278/b3lhzhdo.png[/img]\n[img]http://img20.imageshack.us/img20/7266/1lx6hlxm.png[/img]\n[img]http://img822.imageshack.us/img822/9496/plkthok.png[/img]\n[img]http://img837.imageshack.us/img837/2649/rlhuz4dh.png[/img]","torrent":{"xt":"urn:btih:b0877feb2b8d3abddd275731405d4b7e1cec4ad8","amp;dn":"THE+WOMAN+IN+BLACK+DVDSCR","amp;tr":["udp%3A%2F%2Ftracker.openbittorrent.com%3A80","udp%3A%2F%2Fopen.demonii.com%3A1337","udp%3A%2F%2Ftracker.coppersurfer.tk%3A6969","udp%3A%2F%2Fexodus.desync.com%3A6969"],"infoHash":"b0877feb2b8d3abddd275731405d4b7e1cec4ad8","infoHashBuffer":{"type":"Buffer","data":[176,135,127,235,43,141,58,189,221,39,87,49,64,93,75,126,28,236,74,216]},"announce":[],"urlList":[]}}